<?xml version="1.0" encoding="utf-8"?>
<svg version="1.2" id="Layer_1" xmlns="http://www.w3.org/2000/svg" xmlns:xlink="http://www.w3.org/1999/xlink" x="0px" y="0px"
     viewBox="0 0 33 33" style="enable-background:new 0 0 33 33;" xml:space="preserve">
<style type="text/css">
    .square-row1 { fill: #FF7F7F; }
    .square-row2 { fill: #FFC07F; }
    .square-row3 { fill: #FFDF7F; }
    .square-row4 { fill: #FFFF7F; }
    .square-row5 { fill: #BFFF7F; }
    .square-row6 { fill: #7FFF7F; }
    .square-row7 { fill: #7FFFFF; }
</style>
<defs>
    <linearGradient id="borderGradient" x1="0%" y1="0%" x2="0%" y2="100%" spreadMethod="pad">
        <stop offset="0%" stop-color="#FF7F7F" />       <!-- 第1行颜色 -->
        <stop offset="14.2857%" stop-color="#FFC07F" />  <!-- 第2行颜色 -->
        <stop offset="28.5714%" stop-color="#FFDF7F" />  <!-- 第3行颜色 -->
        <stop offset="42.8571%" stop-color="#FFFF7F" />  <!-- 第4行颜色 -->
        <stop offset="57.1429%" stop-color="#BFFF7F" />  <!-- 第5行颜色 -->
        <stop offset="71.4286%" stop-color="#7FFF7F" />  <!-- 第6行颜色 -->
        <stop offset="100%" stop-color="#7FFFFF" />      <!-- 第7行颜色 -->
    </linearGradient>
</defs>

<!-- 7x7方块区域 (所有方块path元素保持不变) -->
<path class="square-row2" d="M5.5,10h-2C3.2,10,3,9.8,3,9.5v-2C3,7.2,3.2,7,3.5,7h2C5.8,7,6,7.2,6,7.5v2C6,9.8,5.8,10,5.5,10z" />
<path class="square-row2" d="M9.5,7h-2C7.2,7,7,7.2,7,7.5v2C7,9.8,7.2,10,7.5,10h2C9.8,10,10,9.8,10,9.5v-2C10,7.2,9.8,7,9.5,7z" />
<path class="square-row2" d="M13.5,7h-2C11.2,7,11,7.2,11,7.5v2c0,0.3,0.2,0.5,0.5,0.5h2c0.3,0,0.5-0.2,0.5-0.5v-2C14,7.2,13.8,7,13.5,7z" />
<path class="square-row2" d="M17.5,7h-2C15.2,7,15,7.2,15,7.5v2c0,0.3,0.2,0.5,0.5,0.5h2c0.3,0,0.5-0.2,0.5-0.5v-2C18,7.2,17.8,7,17.5,7z" />
<path class="square-row2" d="M21.5,7h-2C19.2,7,19,7.2,19,7.5v2c0,0.3,0.2,0.5,0.5,0.5h2c0.3,0,0.5-0.2,0.5-0.5v-2C22,7.2,21.8,7,21.5,7z" />
<path class="square-row2" d="M25.5,7h-2C23.2,7,23,7.2,23,7.5v2c0,0.3,0.2,0.5,0.5,0.5h2c0.3,0,0.5-0.2,0.5-0.5v-2C26,7.2,25.8,7,25.5,7z" />
<path class="square-row2" d="M29.5,7h-2C27.2,7,27,7.2,27,7.5v2c0,0.3,0.2,0.5,0.5,0.5h2c0.3,0,0.5-0.2,0.5-0.5v-2C30,7.2,29.8,7,29.5,7z" />

<path class="square-row1" d="M13.5,3h-2C11.2,3,11,3.2,11,3.5v2C11,5.8,11.2,6,11.5,6h2C13.8,6,14,5.8,14,5.5v-2C14,3.2,13.8,3,13.5,3z" />
<path class="square-row1" d="M17.5,3h-2C15.2,3,15,3.2,15,3.5v2C15,5.8,15.2,6,15.5,6h2C17.8,6,18,5.8,18,5.5v-2C18,3.2,17.8,3,17.5,3z" />
<path class="square-row1" d="M21.5,3h-2C19.2,3,19,3.2,19,3.5v2C19,5.8,19.2,6,19.5,6h2C21.8,6,22,5.8,22,5.5v-2C22,3.2,21.8,3,21.5,3z" />

<path class="square-row3" d="M5.5,11h-2C3.2,11,3,11.2,3,11.5v2C3,13.8,3.2,14,3.5,14h2C5.8,14,6,13.8,6,13.5v-2C6,11.2,5.8,11,5.5,11z" />
<path class="square-row3" d="M13.5,11h-2c-0.3,0-0.5,0.2-0.5,0.5v2c0,0.3,0.2,0.5,0.5,0.5h2c0.3,0,0.5-0.2,0.5-0.5v-2C14,11.2,13.8,11,13.5,11z" />
<path class="square-row3" d="M17.5,11h-2c-0.3,0-0.5,0.2-0.5,0.5v2c0,0.3,0.2,0.5,0.5,0.5h2c0.3,0,0.5-0.2,0.5-0.5v-2C18,11.2,17.8,11,17.5,11z" />
<path class="square-row3" d="M21.5,11h-2c-0.3,0-0.5,0.2-0.5,0.5v2c0,0.3,0.2,0.5,0.5,0.5h2c0.3,0,0.5-0.2,0.5-0.5v-2C22,11.2,21.8,11,21.5,11z" />
<path class="square-row3" d="M29.5,11h-2c-0.3,0-0.5,0.2-0.5,0.5v2c0,0.3,0.2,0.5,0.5,0.5h2c0.3,0,0.5-0.2,0.5-0.5v-2C30,11.2,29.8,11,29.5,11z" />

<path class="square-row4" d="M9.5,15h-2C7.2,15,7,15.2,7,15.5v2C7,17.8,7.2,18,7.5,18h2c0.3,0,0.5-0.2,0.5-0.5v-2C10,15.2,9.8,15,9.5,15z" />
<path class="square-row4" d="M13.5,15h-2c-0.3,0-0.5,0.2-0.5,0.5v2c0,0.3,0.2,0.5,0.5,0.5h2c0.3,0,0.5-0.2,0.5-0.5v-2C14,15.2,13.8,15,13.5,15z" />
<path class="square-row4" d="M17.5,15h-2c-0.3,0-0.5,0.2-0.5,0.5v2c0,0.3,0.2,0.5,0.5,0.5h2c0.3,0,0.5-0.2,0.5-0.5v-2C18,15.2,17.8,15,17.5,15z" />
<path class="square-row4" d="M21.5,15h-2c-0.3,0-0.5,0.2-0.5,0.5v2c0,0.3,0.2,0.5,0.5,0.5h2c0.3,0,0.5-0.2,0.5-0.5v-2C22,15.2,21.8,15,21.5,15z" />
<path class="square-row4" d="M25.5,15h-2c-0.3,0-0.5,0.2-0.5,0.5v2c0,0.3,0.2,0.5,0.5,0.5h2c0.3,0,0.5-0.2,0.5-0.5v-2C26,15.2,25.8,15,25.5,15z" />

<path class="square-row5" d="M13.5,19h-2c-0.3,0-0.5,0.2-0.5,0.5v2c0,0.3,0.2,0.5,0.5,0.5h2c0.3,0,0.5-0.2,0.5-0.5v-2C14,19.2,13.8,19,13.5,19z" />
<path class="square-row5" d="M17.5,19h-2c-0.3,0-0.5,0.2-0.5,0.5v2c0,0.3,0.2,0.5,0.5,0.5h2c0.3,0,0.5-0.2,0.5-0.5v-2C18,19.2,17.8,19,17.5,19z" />
<path class="square-row5" d="M21.5,19h-2c-0.3,0-0.5,0.2-0.5,0.5v2c0,0.3,0.2,0.5,0.5,0.5h2c0.3,0,0.5-0.2,0.5-0.5v-2C22,19.2,21.8,19,21.5,19z" />

<path class="square-row6" d="M17.5,23h-2c-0.3,0-0.5,0.2-0.5,0.5v2c0,0.3,0.2,0.5,0.5,0.5h2c0.3,0,0.5-0.2,0.5-0.5v-2C18,23.2,17.8,23,17.5,23z" />

<path class="square-row7" d="M13.5,27h-2c-0.3,0-0.5,0.2-0.5,0.5v2c0,0.3,0.2,0.5,0.5,0.5h2c0.3,0,0.5-0.2,0.5-0.5v-2C14,27.2,13.8,27,13.5,27z" />
<path class="square-row7" d="M17.5,27h-2c-0.3,0-0.5,0.2-0.5,0.5v2c0,0.3,0.2,0.5,0.5,0.5h2c0.3,0,0.5-0.2,0.5-0.5v-2C18,27.2,17.8,27,17.5,27z" />
<path class="square-row7" d="M21.5,27h-2c-0.3,0-0.5,0.2-0.5,0.5v2c0,0.3,0.2,0.5,0.5,0.5h2c0.3,0,0.5-0.2,0.5-0.5v-2C22,27.2,21.8,27,21.5,27z" />

</svg>